<svg width="32" height="32" viewBox="0 0 32 32" fill="none" xmlns="http://www.w3.org/2000/svg">
<g id="File_dock">
<path id="Rectangle 1" d="M17.5622 4H12.0001C9.48592 4 8.22885 4 7.4478 4.78105C6.66675 5.5621 6.66675 6.81918 6.66675 9.33333V22.6667C6.66675 25.1808 6.66675 26.4379 7.4478 27.219C8.22885 28 9.48592 28 12.0001 28H20.0001C22.5142 28 23.7713 28 24.5524 27.219C25.3334 26.4379 25.3334 25.1808 25.3334 22.6667V11.7712C25.3334 11.2262 25.3334 10.9537 25.2319 10.7087C25.1304 10.4637 24.9377 10.271 24.5524 9.88562L19.4478 4.78105C19.0624 4.39567 18.8697 4.20299 18.6247 4.10149C18.3797 4 18.1072 4 17.5622 4Z" stroke="#33363F" stroke-width="2"/>
<path id="Vector 55" d="M12 17.3333L20 17.3333" stroke="#33363F" stroke-width="2" stroke-linecap="round"/>
<path id="Vector 58" d="M12 22.6667L17.3333 22.6667" stroke="#33363F" stroke-width="2" stroke-linecap="round"/>
<path id="Rectangle 2" d="M17.3333 4V9.33333C17.3333 10.5904 17.3333 11.219 17.7238 11.6095C18.1143 12 18.7428 12 19.9999 12H25.3333" stroke="#33363F" stroke-width="2"/>
</g>
</svg>
